<?xml version="1.0" encoding="UTF-8"?>
<svg width="1178px" height="431px" viewBox="0 0 1178 431" version="1.1" xmlns="http://www.w3.org/2000/svg" xmlns:xlink="http://www.w3.org/1999/xlink">
    <!-- Generator: Sketch 63.1 (92452) - https://sketch.com -->
    <title>GDG Full Color</title>
    <desc>Created with Sketch.</desc>
    <g id="GDG-Full-Color" stroke="none" stroke-width="1" fill="none" fill-rule="evenodd">
        <path d="M619.447802,300 C604.315858,300 590.370943,296.353423 577.612637,289.06016 C564.854332,281.766898 554.729433,271.757417 547.237637,259.031417 C539.745842,246.305418 536,232.12842 536,216.5 C536,200.87158 539.745842,186.694582 547.237637,173.968583 C554.729433,161.242583 564.854332,151.233102 577.612637,143.93984 C590.370943,136.646577 604.315858,133 619.447802,133 C631.464346,133 642.664783,135.158178 653.049451,139.474599 C663.434118,143.79102 672.112602,149.819034 679.085165,157.558824 L661.728022,174.973262 C656.535688,169.16842 650.342069,164.703224 643.146978,161.57754 C635.951887,158.451856 627.978066,156.889037 619.225275,156.889037 C608.98896,156.889037 599.420374,159.344895 590.519231,164.256684 C581.618087,169.168474 574.497279,176.163947 569.156593,185.243316 C563.815907,194.322684 561.145604,204.741474 561.145604,216.5 C561.145604,228.258526 563.815907,238.677316 569.156593,247.756684 C574.497279,256.836053 581.618087,263.831526 590.519231,268.743316 C599.420374,273.655105 609.063135,276.110963 619.447802,276.110963 C628.942355,276.110963 636.879089,274.696984 643.258242,271.868984 C649.637395,269.040984 655.348876,265.245567 660.392857,260.48262 C663.65661,257.208094 666.438175,253.114998 668.737637,248.203209 C671.037099,243.291419 672.557689,237.933184 673.299451,232.128342 L619.225275,232.128342 L619.225275,209.802139 L696.887363,209.802139 C697.629125,213.969718 698,218.286074 698,222.751337 C698,232.8726 696.442323,242.584401 693.326923,251.887032 C690.211523,261.189663 685.241792,269.264226 678.417582,276.110963 C663.433991,292.037067 643.777594,300 619.447802,300 Z M726,137 L776.803361,137 C793.22025,137 807.566325,140.330972 819.842017,146.993017 C832.117708,153.655061 841.546186,163.018794 848.127731,175.084497 C854.709277,187.1502 858,200.95523 858,216.5 C858,232.04477 854.709277,245.8498 848.127731,257.915503 C841.546186,269.981206 832.117708,279.344939 819.842017,286.006983 C807.566325,292.669028 793.22025,296 776.803361,296 L726,296 L726,137 Z M776.486486,273 C794.216305,273 808.067518,268.054498 818.040541,258.163347 C828.013563,248.272195 833,234.551217 833,217 C833,199.597523 828.013563,185.913728 818.040541,175.948207 C808.067518,165.982686 794.216305,161 776.486486,161 L751,161 L751,273 L776.486486,273 Z M961.447802,300 C946.315858,300 932.370943,296.353423 919.612637,289.06016 C906.854332,281.766898 896.729433,271.757417 889.237637,259.031417 C881.745842,246.305418 878,232.12842 878,216.5 C878,200.87158 881.745842,186.694582 889.237637,173.968583 C896.729433,161.242583 906.854332,151.233102 919.612637,143.93984 C932.370943,136.646577 946.315858,133 961.447802,133 C973.464346,133 984.664783,135.158178 995.049451,139.474599 C1005.43412,143.79102 1014.1126,149.819034 1021.08516,157.558824 L1003.72802,174.973262 C998.535688,169.16842 992.342069,164.703224 985.146978,161.57754 C977.951887,158.451856 969.978066,156.889037 961.225275,156.889037 C950.98896,156.889037 941.420374,159.344895 932.519231,164.256684 C923.618087,169.168474 916.497279,176.163947 911.156593,185.243316 C905.815907,194.322684 903.145604,204.741474 903.145604,216.5 C903.145604,228.258526 905.815907,238.677316 911.156593,247.756684 C916.497279,256.836053 923.618087,263.831526 932.519231,268.743316 C941.420374,273.655105 951.063135,276.110963 961.447802,276.110963 C970.942355,276.110963 978.879089,274.696984 985.258242,271.868984 C991.637395,269.040984 997.348876,265.245567 1002.39286,260.48262 C1005.65661,257.208094 1008.43818,253.114998 1010.73764,248.203209 C1013.0371,243.291419 1014.55769,237.933184 1015.29945,232.128342 L961.225275,232.128342 L961.225275,209.802139 L1038.88736,209.802139 C1039.62912,213.969718 1040,218.286074 1040,222.751337 C1040,232.8726 1038.44232,242.584401 1035.32692,251.887032 C1032.21152,261.189663 1027.24179,269.264226 1020.41758,276.110963 C1005.43399,292.037067 985.777594,300 961.447802,300 Z" id="GDG" fill="#909090"></path>
        <g id="Group-Copy" transform="translate(116.000000, 129.000000)">
            <rect id="Yellow" fill="#FABB04" transform="translate(256.500000, 113.500000) rotate(-300.000000) translate(-256.500000, -113.500000) " x="231" y="36" width="51" height="155" rx="25.5"></rect>
            <rect id="Green" fill="#0F9D57" transform="translate(256.500000, 61.500000) rotate(-60.000000) translate(-256.500000, -61.500000) " x="231" y="-16" width="51" height="155" rx="25.5"></rect>
            <rect id="Red" fill="#EA4335" transform="translate(80.500000, 61.500000) rotate(-300.000000) translate(-80.500000, -61.500000) " x="55" y="-16" width="51" height="155" rx="25.5"></rect>
            <rect id="Blue" fill="#4285F4" transform="translate(80.500000, 113.500000) rotate(-240.000000) translate(-80.500000, -113.500000) " x="55" y="36" width="51" height="155" rx="25.5"></rect>
        </g>
    </g>
</svg>