<?xml version="1.0" encoding="UTF-8"?>
<svg width="1178px" height="431px" viewBox="0 0 1178 431" version="1.1" xmlns="http://www.w3.org/2000/svg" xmlns:xlink="http://www.w3.org/1999/xlink">
    <!-- Generator: Sketch 63.1 (92452) - https://sketch.com -->
    <title>GDG Dark</title>
    <desc>Created with Sketch.</desc>
    <g id="GDG-Dark" stroke="none" stroke-width="1" fill="none" fill-rule="evenodd">
        <path d="M618.447802,300 C603.315858,300 589.370943,296.353423 576.612637,289.06016 C563.854332,281.766898 553.729433,271.757417 546.237637,259.031417 C538.745842,246.305418 535,232.12842 535,216.5 C535,200.87158 538.745842,186.694582 546.237637,173.968583 C553.729433,161.242583 563.854332,151.233102 576.612637,143.93984 C589.370943,136.646577 603.315858,133 618.447802,133 C630.464346,133 641.664783,135.158178 652.049451,139.474599 C662.434118,143.79102 671.112602,149.819034 678.085165,157.558824 L660.728022,174.973262 C655.535688,169.16842 649.342069,164.703224 642.146978,161.57754 C634.951887,158.451856 626.978066,156.889037 618.225275,156.889037 C607.98896,156.889037 598.420374,159.344895 589.519231,164.256684 C580.618087,169.168474 573.497279,176.163947 568.156593,185.243316 C562.815907,194.322684 560.145604,204.741474 560.145604,216.5 C560.145604,228.258526 562.815907,238.677316 568.156593,247.756684 C573.497279,256.836053 580.618087,263.831526 589.519231,268.743316 C598.420374,273.655105 608.063135,276.110963 618.447802,276.110963 C627.942355,276.110963 635.879089,274.696984 642.258242,271.868984 C648.637395,269.040984 654.348876,265.245567 659.392857,260.48262 C662.65661,257.208094 665.438175,253.114998 667.737637,248.203209 C670.037099,243.291419 671.557689,237.933184 672.299451,232.128342 L618.225275,232.128342 L618.225275,209.802139 L695.887363,209.802139 C696.629125,213.969718 697,218.286074 697,222.751337 C697,232.8726 695.442323,242.584401 692.326923,251.887032 C689.211523,261.189663 684.241792,269.264226 677.417582,276.110963 C662.433991,292.037067 642.777594,300 618.447802,300 Z M725,137 L775.803361,137 C792.22025,137 806.566325,140.330972 818.842017,146.993017 C831.117708,153.655061 840.546186,163.018794 847.127731,175.084497 C853.709277,187.1502 857,200.95523 857,216.5 C857,232.04477 853.709277,245.8498 847.127731,257.915503 C840.546186,269.981206 831.117708,279.344939 818.842017,286.006983 C806.566325,292.669028 792.22025,296 775.803361,296 L725,296 L725,137 Z M775.486486,273 C793.216305,273 807.067518,268.054498 817.040541,258.163347 C827.013563,248.272195 832,234.551217 832,217 C832,199.597523 827.013563,185.913728 817.040541,175.948207 C807.067518,165.982686 793.216305,161 775.486486,161 L750,161 L750,273 L775.486486,273 Z M960.447802,300 C945.315858,300 931.370943,296.353423 918.612637,289.06016 C905.854332,281.766898 895.729433,271.757417 888.237637,259.031417 C880.745842,246.305418 877,232.12842 877,216.5 C877,200.87158 880.745842,186.694582 888.237637,173.968583 C895.729433,161.242583 905.854332,151.233102 918.612637,143.93984 C931.370943,136.646577 945.315858,133 960.447802,133 C972.464346,133 983.664783,135.158178 994.049451,139.474599 C1004.43412,143.79102 1013.1126,149.819034 1020.08516,157.558824 L1002.72802,174.973262 C997.535688,169.16842 991.342069,164.703224 984.146978,161.57754 C976.951887,158.451856 968.978066,156.889037 960.225275,156.889037 C949.98896,156.889037 940.420374,159.344895 931.519231,164.256684 C922.618087,169.168474 915.497279,176.163947 910.156593,185.243316 C904.815907,194.322684 902.145604,204.741474 902.145604,216.5 C902.145604,228.258526 904.815907,238.677316 910.156593,247.756684 C915.497279,256.836053 922.618087,263.831526 931.519231,268.743316 C940.420374,273.655105 950.063135,276.110963 960.447802,276.110963 C969.942355,276.110963 977.879089,274.696984 984.258242,271.868984 C990.637395,269.040984 996.348876,265.245567 1001.39286,260.48262 C1004.65661,257.208094 1007.43818,253.114998 1009.73764,248.203209 C1012.0371,243.291419 1013.55769,237.933184 1014.29945,232.128342 L960.225275,232.128342 L960.225275,209.802139 L1037.88736,209.802139 C1038.62912,213.969718 1039,218.286074 1039,222.751337 C1039,232.8726 1037.44232,242.584401 1034.32692,251.887032 C1031.21152,261.189663 1026.24179,269.264226 1019.41758,276.110963 C1004.43399,292.037067 984.777594,300 960.447802,300 Z" id="GDG" fill="#FFFFFF"></path>
        <path d="M354.070005,223.453 L405.069005,252.898 L343.254263,288.587906 C331.057801,295.629536 315.462246,291.45072 308.420615,279.254258 C301.378984,267.057796 305.557801,251.462241 317.754263,244.42061 L354.070005,223.453 Z M156.49812,189.076386 L156.564133,189.081602 C156.682473,189.091109 156.800807,189.10145 156.919125,189.112629 C156.962986,189.116774 157.006664,189.121015 157.050341,189.125371 C157.136846,189.133998 157.223296,189.143069 157.309732,189.152588 C157.380694,189.160402 157.452015,189.168562 157.523325,189.177028 C157.595839,189.185637 157.668149,189.194538 157.740446,189.203755 C157.806263,189.212145 157.872297,189.220827 157.938318,189.229772 C158.004999,189.238808 158.071366,189.248069 158.137719,189.257598 C158.208587,189.267774 158.27963,189.278283 158.350656,189.289099 C158.445044,189.303473 158.539327,189.318377 158.633574,189.333822 C158.669643,189.339733 158.705625,189.34571 158.741601,189.351765 C158.83116,189.36684 158.920828,189.38243 159.010458,189.398513 C159.072304,189.40961 159.134278,189.420968 159.196231,189.432563 C159.291484,189.45039 159.386427,189.468723 159.48132,189.487611 C159.518174,189.494948 159.554552,189.502273 159.590922,189.509679 C159.695917,189.531058 159.801595,189.553281 159.907201,189.576196 C160.149243,189.628725 160.39007,189.684687 160.630448,189.744284 C160.703362,189.762361 160.776324,189.780796 160.849241,189.799566 C160.913278,189.816051 160.977008,189.832722 161.040703,189.849651 C161.108127,189.867571 161.175539,189.885786 161.24291,189.904289 C161.311188,189.923042 161.379557,189.942129 161.447882,189.961514 C161.490869,189.97371 161.533822,189.986019 161.576758,189.998447 L161.760829,190.052483 C161.798872,190.063807 161.8369,190.075225 161.874914,190.086736 C161.932142,190.104064 161.989461,190.121642 162.046746,190.139433 C162.131553,190.165772 162.216157,190.192535 162.300682,190.219763 C162.354003,190.236939 162.407329,190.254312 162.460623,190.27187 C162.534843,190.296323 162.60909,190.321166 162.683272,190.34637 C162.753606,190.370268 162.823704,190.394427 162.893741,190.418911 C162.962439,190.442925 163.03143,190.467376 163.100361,190.492143 C163.363991,190.58687 163.626153,190.685973 163.887334,190.789692 L163.910607,190.798947 C164.086852,190.869137 164.262648,190.941429 164.437964,191.015833 C164.534807,191.056933 164.631683,191.098755 164.728407,191.141226 C164.772731,191.160689 164.81639,191.180007 164.860017,191.199457 C164.931502,191.231325 165.003229,191.263698 165.074869,191.29643 C165.166496,191.338294 165.258167,191.380834 165.349688,191.423965 C165.387886,191.441967 165.425858,191.459976 165.463803,191.478087 C165.534517,191.511838 165.6052,191.545973 165.675791,191.580463 C165.759651,191.621435 165.84369,191.663064 165.927593,191.7052 C165.978602,191.730816 166.02926,191.756467 166.079868,191.782303 C166.162252,191.82436 166.244617,191.866969 166.326845,191.91007 C166.371847,191.933658 166.41678,191.95738 166.461673,191.981249 C166.549145,192.027759 166.636483,192.074842 166.723658,192.122486 C166.763791,192.14442 166.803997,192.166533 166.844167,192.188765 L166.871407,192.203862 C166.999387,192.274892 167.12701,192.34714 167.254263,192.42061 L257.320905,244.42061 C269.517367,251.462241 273.696183,267.057796 266.654553,279.254258 C259.612922,291.45072 244.017367,295.629536 231.820905,288.587906 L141.754263,236.587906 C141.579833,236.487199 141.407043,236.384742 141.235902,236.28057 L141.754263,236.587906 C141.556632,236.473803 141.361106,236.357455 141.167699,236.238912 C141.0031,236.138026 140.839935,236.035486 140.678315,235.931386 L140.668834,235.925276 C140.642893,235.908552 140.616993,235.891787 140.591132,235.874982 C140.456087,235.787225 140.322383,235.698547 140.189767,235.608799 C140.164008,235.591367 140.137706,235.573497 140.111448,235.555585 C139.791906,235.337598 139.479373,235.11386 139.173246,234.884173 C139.140899,234.859902 139.108912,234.835783 139.076995,234.811599 C138.796285,234.598909 138.520761,234.380984 138.250741,234.158228 C138.194785,234.112065 138.139203,234.065811 138.083857,234.019353 C137.808235,233.787998 137.538113,233.551251 137.273911,233.309638 C137.248069,233.286005 137.222151,233.262205 137.196291,233.238358 C137.068712,233.120707 136.942584,233.001972 136.817855,232.882123 L136.778555,232.844279 L136.778555,232.844279 L136.722849,232.790985 L136.722849,232.790985 L136.669,232.738 L136.622964,232.692835 L136.622964,232.692835 L136.589227,232.659954 L136.474521,232.54591 L136.474521,232.54591 L136.360455,232.431319 L136.324818,232.395222 C134.123004,230.160448 132.387843,227.567994 131.160149,224.770189 C131.156083,224.762166 131.152401,224.753808 131.148723,224.745449 L131.101142,224.634656 C131.048489,224.512754 130.996795,224.390469 130.946065,224.267814 L131.148723,224.745449 C131.063373,224.550299 130.980487,224.354153 130.900081,224.157064 C130.76751,223.831041 130.641422,223.50292 130.522166,223.172455 C130.509344,223.137856 130.496793,223.102829 130.484319,223.067775 C130.374207,222.757524 130.269863,222.445511 130.17157,222.131655 C130.147644,222.055951 130.124334,221.98027 130.101375,221.904486 C130.058972,221.763881 130.017569,221.6229 129.97738,221.481577 L129.963995,221.434926 C129.949813,221.384681 129.935785,221.334394 129.92191,221.284064 C129.891169,221.172014 129.861171,221.060274 129.831929,220.948335 C129.821375,220.908429 129.811013,220.868358 129.800748,220.828261 C129.759706,220.667502 129.720088,220.506294 129.682036,220.344708 L129.671462,220.300033 C129.659055,220.246911 129.646817,220.193748 129.634749,220.140546 C129.613399,220.04607 129.592408,219.95106 129.571958,219.855928 C129.555346,219.778982 129.539173,219.702011 129.523353,219.624963 C129.456767,219.300398 129.396426,218.974686 129.342404,218.64781 C129.331229,218.580384 129.320328,218.512734 129.309698,218.445036 C129.202232,217.760509 129.122431,217.07127 129.070771,216.3789 C129.065033,216.302015 129.059686,216.225703 129.05468,216.149355 C129.033474,215.825993 129.018388,215.501427 129.00951,215.176403 C129.007825,215.11472 129.006364,215.053025 129.005127,214.991316 C128.927253,211.109582 129.735327,207.167047 131.512263,203.473407 L131.289153,203.949213 C131.384804,203.739596 131.483536,203.530693 131.585363,203.32257 C131.661033,203.16802 131.738203,203.014174 131.817077,202.860794 L131.82573,202.843933 C131.848867,202.799027 131.872151,202.75416 131.895581,202.709334 C131.953151,202.599213 132.011546,202.489413 132.070825,202.379866 C132.09791,202.329806 132.125195,202.27978 132.152666,202.229807 C132.240064,202.070812 132.329398,201.91225 132.420615,201.754258 C132.513651,201.593115 132.60818,201.433371 132.704175,201.275034 L132.420615,201.754258 C132.538244,201.550519 132.658259,201.349018 132.780606,201.149768 C132.864314,201.013444 132.949132,200.878145 133.035024,200.743906 C133.054151,200.714012 133.073628,200.683709 133.09316,200.653461 C133.181956,200.515954 133.271678,200.37987 133.362506,200.244908 C133.398252,200.19179 133.434505,200.138354 133.470932,200.085096 C133.668805,199.795799 133.871603,199.511987 134.079314,199.233446 C134.108526,199.194275 134.137352,199.15585 134.16627,199.117526 C134.247688,199.00962 134.330363,198.901854 134.413776,198.7949 C134.436234,198.766106 134.458474,198.737715 134.480766,198.709382 L134.521002,198.658377 C134.622277,198.53033 134.724618,198.403466 134.828005,198.277791 C134.854287,198.245842 134.880796,198.213778 134.907374,198.181792 C135.135922,197.906731 135.369475,197.637455 135.607842,197.373994 C135.642982,197.335155 135.677934,197.296763 135.712988,197.258495 C135.802381,197.160901 135.892853,197.063679 135.983985,196.967276 C136.006967,196.942965 136.029775,196.918933 136.052623,196.894953 L136.089268,196.856573 C137.873144,194.992175 139.905241,193.438888 142.101768,192.219164 L142.125657,192.205915 L142.254284,192.135153 C142.58538,191.954243 142.920143,191.780873 143.258289,191.615117 C143.289266,191.599933 143.320584,191.584659 143.351932,191.569452 C143.436817,191.528272 143.521507,191.487763 143.606401,191.447728 C143.659838,191.422527 143.713853,191.397284 143.767949,191.372233 C143.853717,191.332517 143.939341,191.293441 144.025162,191.254845 C144.056331,191.240828 144.087697,191.226797 144.119089,191.212831 C144.628714,190.986105 145.145102,190.776323 145.667474,190.583669 C145.745428,190.55492 145.823259,190.526644 145.90122,190.498748 C145.964948,190.475944 146.028964,190.453323 146.093066,190.430958 C146.131734,190.417467 146.170394,190.404082 146.209084,190.390791 C146.298048,190.360228 146.387132,190.330171 146.476374,190.300607 C146.551752,190.275636 146.627071,190.251071 146.7025,190.226857 C146.746256,190.212809 146.790563,190.198717 146.834908,190.184745 C146.917383,190.158763 146.999385,190.133381 147.08151,190.108412 C147.143979,190.089418 147.207058,190.070503 147.270207,190.051832 C147.337176,190.032032 147.403866,190.012609 147.470633,189.993458 C147.516006,189.980443 147.561331,189.967577 147.606691,189.954836 C147.819959,189.894932 148.034088,189.837767 148.248928,189.783385 C148.334568,189.761704 148.420954,189.740312 148.507452,189.71937 C148.610544,189.694411 148.713496,189.670159 148.816599,189.646543 C148.89287,189.629074 148.96923,189.611951 149.045671,189.595177 L149.07262,189.589278 C149.188162,189.564054 149.303886,189.539628 149.419782,189.516001 C149.426502,189.514631 149.433164,189.513275 149.439827,189.511923 C149.499102,189.499888 149.558427,189.488062 149.617795,189.476445 C149.859498,189.429146 150.102287,189.385261 150.345724,189.344881 C150.369569,189.340925 150.393909,189.336923 150.418256,189.332956 C150.511868,189.317706 150.605157,189.303037 150.698535,189.288882 C150.753049,189.280619 150.807445,189.272553 150.861871,189.264661 C150.956971,189.250871 151.052581,189.237557 151.148276,189.224783 C151.195455,189.218487 151.242088,189.212393 151.288741,189.206428 C151.384586,189.194172 151.481018,189.182397 151.57753,189.171171 C151.613763,189.166955 151.650396,189.162774 151.687039,189.158671 C151.79426,189.146669 151.900846,189.135416 152.00752,189.124831 C152.044475,189.121164 152.081845,189.117538 152.119226,189.113995 C152.172424,189.108952 152.225424,189.104096 152.278445,189.099404 C152.445357,189.084632 152.612729,189.071478 152.780276,189.059972 C152.840227,189.055856 152.899891,189.05197 152.959577,189.048293 C152.983337,189.046829 153.007317,189.045385 153.031301,189.043975 C153.126989,189.038351 153.222568,189.033271 153.318196,189.028729 L153.414123,189.024353 C153.479137,189.02151 153.544173,189.018915 153.609228,189.016569 C153.648578,189.01515 153.687941,189.013821 153.727311,189.012584 C153.817685,189.009743 153.908055,189.007384 153.998459,189.005505 C154.074365,189.003928 154.150081,189.002692 154.225819,189.001793 C154.283147,189.001112 154.340843,189.000623 154.398551,189.000329 C154.43215,189.000159 154.465492,189.000055 154.498837,189.000017 L154.733905,189.000832 C154.764212,189.001077 154.794521,189.001376 154.824832,189.001729 C154.911265,189.002734 154.998312,189.004193 155.085376,189.006099 C155.127685,189.007026 155.169676,189.00805 155.21167,189.009178 C155.307869,189.011762 155.404191,189.014896 155.500527,189.01858 C155.551685,189.020537 155.602698,189.022641 155.653713,189.0249 C155.697748,189.026849 155.742061,189.028927 155.786376,189.031121 C155.982264,189.040824 156.177803,189.052773 156.373336,189.066998 C156.40618,189.069387 156.43917,189.071852 156.472161,189.074382 L156.49812,189.076386 L156.49812,189.076386 Z M343.254263,140.42061 L432.918665,192.188858 C432.92895,192.194536 432.939232,192.200222 432.94951,192.205915 L433.320905,192.42061 C433.486016,192.515937 433.649657,192.612831 433.811821,192.711264 L433.320905,192.42061 C433.513668,192.531902 433.704428,192.64533 433.893173,192.760848 C434.033679,192.846839 434.173455,192.934235 434.312102,193.022775 C434.334106,193.036827 434.35622,193.050996 434.378305,193.065194 L434.396852,193.07713 C434.542578,193.170992 434.687047,193.266124 434.830255,193.362501 C434.879994,193.395973 434.930072,193.429931 434.979995,193.464042 C435.098595,193.54508 435.215959,193.626724 435.332447,193.709209 C435.35756,193.726991 435.383103,193.745147 435.408603,193.763344 C436.202015,194.329545 436.954018,194.934467 437.663994,195.574269 L437.743041,195.645805 C437.781872,195.681096 437.820577,195.716491 437.859154,195.75199 C437.938871,195.825345 438.018147,195.899242 438.096877,195.973578 C438.124827,195.999969 438.152553,196.026267 438.18021,196.052618 L438.218589,196.089263 C440.620936,198.387853 442.506736,201.098573 443.827956,204.042159 C443.834574,204.056717 443.841051,204.071104 443.847513,204.085495 L443.848056,204.087056 L443.891271,204.184376 C443.967746,204.357571 444.042274,204.531558 444.114845,204.706301 L443.924799,204.259326 C444.012887,204.460645 444.098351,204.663024 444.181176,204.866407 C444.223442,204.971311 444.265575,205.07673 444.307,205.18241 C444.353065,205.298881 444.397908,205.415835 444.441885,205.533095 C444.465577,205.597251 444.489286,205.661222 444.512737,205.725282 C444.545737,205.814496 444.577985,205.904158 444.60973,205.99399 C444.657676,206.130524 444.704757,206.267391 444.750673,206.404633 L444.76149,206.436228 C444.769231,206.459475 444.77694,206.482733 444.784614,206.506001 C444.829385,206.642501 444.873094,206.778812 444.915656,206.915471 C444.933657,206.972568 444.951398,207.030263 444.968936,207.088018 C445.003469,207.202391 445.03737,207.316869 445.07047,207.431576 C445.089448,207.496744 445.108029,207.562131 445.126351,207.627589 C445.266283,208.12798 445.39116,208.632551 445.500628,209.140591 C445.512935,209.19737 445.525012,209.254368 445.536894,209.311408 C445.604191,209.634737 445.665282,209.959179 445.7201,210.284792 C445.732707,210.359465 445.745043,210.43479 445.757042,210.510175 C445.809592,210.840487 445.855667,211.171469 445.89526,211.503404 C445.899722,211.540707 445.904052,211.577708 445.908303,211.614721 C445.94787,211.959338 445.980473,212.305081 446.006028,212.651604 C446.009708,212.701475 446.013224,212.75114 446.016595,212.80082 C446.315765,217.208701 445.474363,221.737605 443.36946,225.928591 C443.347565,225.972024 443.325492,226.01568 443.30328,226.059299 C443.098612,226.461206 442.882459,226.859512 442.654553,227.254258 C442.566287,227.407138 442.476677,227.558759 442.385747,227.709114 L442.654553,227.254258 C442.535509,227.460448 442.41402,227.664347 442.290144,227.865939 C442.096391,228.181244 441.896854,228.490824 441.691701,228.794705 C441.675357,228.818913 441.659066,228.842956 441.642739,228.866964 C441.431981,229.176879 441.215232,229.481003 440.992856,229.779088 C440.965116,229.816273 440.937051,229.853679 440.908897,229.89099 C440.694799,230.174713 440.475835,230.452587 440.251967,230.724883 C440.218032,230.76616 440.183741,230.807602 440.149336,230.848913 C440.069675,230.944562 439.9897,231.039168 439.909131,231.133079 C439.870195,231.178461 439.831144,231.223655 439.791954,231.268686 C439.687325,231.388916 439.581398,231.508337 439.474501,231.626588 C439.430805,231.674924 439.387249,231.722735 439.343535,231.770353 C439.263582,231.857448 439.182846,231.944165 439.101584,232.03023 C439.075193,232.058181 439.048896,232.085906 439.022544,232.113563 L438.9859,232.151942 C438.880326,232.262281 438.773883,232.371531 438.666588,232.479686 L438.452412,232.693015 L438.452412,232.693015 L438.352,232.79 L438.090341,233.042353 C436.429167,234.613516 434.581523,235.934372 432.606822,236.989003 L432.922619,236.817474 C432.749006,236.913365 432.574373,237.007174 432.398759,237.098893 C432.331657,237.13394 432.264291,237.168742 432.196785,237.203238 C432.16085,237.2216 432.124885,237.23987 432.08888,237.258054 C431.999485,237.303201 431.909801,237.347834 431.819877,237.391928 C431.775765,237.413559 431.731399,237.435155 431.686976,237.45662 C431.607959,237.4948 431.528971,237.532466 431.449805,237.56972 C431.390272,237.597734 431.330891,237.625398 431.271412,237.65283 C431.228911,237.672433 431.185942,237.692107 431.142923,237.711661 C431.058811,237.74989 430.974821,237.787518 430.890644,237.824687 C430.81661,237.857377 430.742289,237.889773 430.667824,237.921811 C430.625628,237.939966 430.583254,237.958062 430.540835,237.976042 C430.469473,238.006289 430.398269,238.03609 430.326939,238.065565 C430.096867,238.160636 429.865491,238.252318 429.632894,238.340589 C429.42351,238.420049 429.213318,238.496681 429.002199,238.570537 C428.944476,238.59073 428.886479,238.610787 428.828413,238.630634 C428.610094,238.705257 428.390658,238.776967 428.170317,238.845697 C428.124805,238.859894 428.079109,238.874007 428.033376,238.887993 C427.923171,238.921693 427.812867,238.954614 427.702349,238.986791 C427.689221,238.990613 427.675886,238.994483 427.662548,238.998343 C427.431791,239.06512 427.200315,239.128599 426.967989,239.18882 C426.922407,239.200634 426.877265,239.212203 426.832093,239.223649 L426.79181,239.233821 C426.403533,239.331535 426.012942,239.420167 425.620384,239.499625 C425.526692,239.51859 425.43281,239.537047 425.338821,239.554979 C425.303863,239.561649 425.268865,239.56825 425.233852,239.574779 C425.141404,239.592019 425.048801,239.60876 424.956099,239.624993 C424.897796,239.635201 424.840107,239.645097 424.782382,239.654797 C424.734421,239.662857 424.685735,239.670894 424.637023,239.678792 C424.526027,239.696784 424.415421,239.713971 424.304692,239.730434 C424.275786,239.734732 424.246759,239.738997 424.217723,239.743212 C424.113219,239.758383 424.008613,239.77291 423.903906,239.78679 C423.86769,239.79159 423.831985,239.796246 423.796268,239.800827 C423.67692,239.816137 423.556778,239.830684 423.436514,239.844381 C423.418232,239.846463 423.399901,239.848531 423.381566,239.850579 C423.277892,239.862158 423.174309,239.873088 423.070644,239.883387 C422.831143,239.907182 422.590987,239.927622 422.350464,239.944666 C422.270627,239.950324 422.190632,239.955615 422.110599,239.96053 C422.05768,239.96378 422.004681,239.966869 421.951667,239.969793 C421.864921,239.974579 421.777975,239.978929 421.69099,239.982835 C421.640823,239.985087 421.591162,239.987171 421.541488,239.98911 C421.459619,239.992307 421.377226,239.995125 421.294803,239.997544 C421.230521,239.99943 421.16649,240.001067 421.102442,240.002463 C421.008513,240.004511 420.91445,240.006041 420.820355,240.00705 C420.782452,240.007456 420.744769,240.007777 420.707082,240.008013 C420.62002,240.008561 420.532653,240.008662 420.445264,240.008312 C420.376883,240.008038 420.308601,240.007491 420.240306,240.006668 C420.124222,240.005268 420.008316,240.00308 419.892383,240.000097 C419.890205,240.000041 419.887541,239.999972 419.884877,239.999903 C419.457818,239.988917 419.022883,239.966583 418.588011,239.93298 C418.522887,239.92795 418.4568,239.922585 418.390717,239.91696 C418.314103,239.910437 418.238134,239.903623 418.162171,239.896465 C418.14936,239.895258 418.136342,239.894021 418.123324,239.892774 L417.813395,239.861163 C417.776758,239.857199 417.740124,239.853154 417.703491,239.849029 C417.683107,239.846734 417.662437,239.84438 417.641768,239.842001 C417.516886,239.827626 417.39225,239.812342 417.267655,239.79612 C417.247869,239.793544 417.228197,239.790959 417.208526,239.788351 C417.110521,239.775357 417.012466,239.761772 416.914443,239.747604 C416.834486,239.736048 416.754441,239.724087 416.67442,239.711737 C416.612137,239.702125 416.549838,239.692272 416.487555,239.682183 C416.436173,239.673858 416.38514,239.66543 416.334118,239.656843 C416.218972,239.637467 416.103294,239.617173 415.987681,239.596059 C415.956839,239.590425 415.92653,239.584832 415.896226,239.579183 C415.797803,239.560836 415.698985,239.541805 415.600221,239.522172 C415.555719,239.513327 415.51079,239.50427 415.465873,239.495088 C415.407008,239.483053 415.348974,239.470975 415.290962,239.458688 C414.996358,239.396302 414.701678,239.328381 414.407675,239.255018 C414.352122,239.241155 414.29708,239.227222 414.242062,239.213098 C414.163341,239.192891 414.083905,239.172089 414.004524,239.150888 C413.945148,239.135028 413.886186,239.119051 413.827255,239.102852 C413.759888,239.084334 413.692537,239.065521 413.625229,239.046418 C413.552911,239.025894 413.4806,239.005023 413.408339,238.983817 C413.333398,238.961824 413.258393,238.939436 413.183446,238.916684 C413.129706,238.900371 413.076047,238.883887 413.022418,238.867217 C412.947902,238.844055 412.873549,238.820566 412.799257,238.796718 C412.774186,238.788671 412.748889,238.780507 412.723598,238.772301 L412.444381,238.679914 C412.43771,238.677664 412.43104,238.675411 412.42437,238.673154 C412.324436,238.639353 412.224323,238.604792 412.124333,238.56957 C412.075961,238.552532 412.027362,238.535247 411.978793,238.517805 C411.917539,238.495807 411.856908,238.473771 411.796325,238.451492 C411.650983,238.398044 411.505582,238.343058 411.360476,238.286655 C411.164272,238.210392 410.968405,238.131453 410.773122,238.049903 C410.693555,238.016679 410.613392,237.982724 410.533329,237.948327 C410.487584,237.928672 410.442275,237.90905 410.397,237.889285 C410.315005,237.853493 410.23295,237.817159 410.151007,237.780357 C410.09714,237.756165 410.043186,237.731708 409.989281,237.707048 C409.918742,237.674778 409.848434,237.642227 409.778212,237.609329 C409.713781,237.579143 409.649422,237.548664 409.585137,237.517892 C409.513943,237.483813 409.44266,237.449287 409.371472,237.414398 C409.308892,237.383727 409.246893,237.353029 409.184967,237.322057 C409.121237,237.290184 409.05695,237.257695 408.992743,237.224907 C408.917822,237.186647 408.843512,237.148242 408.769314,237.109437 C408.710029,237.078431 408.650692,237.047104 408.591427,237.015519 C408.526794,236.981073 408.4621,236.946242 408.397495,236.911102 C408.341602,236.8807 408.286024,236.850205 408.230513,236.819481 L408.20376,236.804654 C408.075781,236.733623 407.948158,236.661375 407.820905,236.587906 L406.673,235.925 L369.570005,214.504 L369.571,214.504 L317.754263,184.587906 C305.557801,177.546275 301.378984,161.95072 308.420615,149.754258 C315.462246,137.557796 331.057801,133.37898 343.254263,140.42061 Z M266.654553,149.754258 C273.696183,161.95072 269.517367,177.546275 257.320905,184.587906 L220.003005,206.132 L169.670178,177.072281 C169.446407,176.943087 169.221927,176.816254 168.996767,176.691775 L231.820905,140.42061 C244.017367,133.37898 259.612922,137.557796 266.654553,149.754258 Z" id="Bracket-Copy-2" fill="#FFFFFF"></path>
    </g>
</svg>