<?xml version="1.0" encoding="UTF-8"?>
<svg width="1178px" height="431px" viewBox="0 0 1178 431" version="1.1" xmlns="http://www.w3.org/2000/svg" xmlns:xlink="http://www.w3.org/1999/xlink">
    <!-- Generator: Sketch 63.1 (92452) - https://sketch.com -->
    <title>GDG Mono Gray</title>
    <desc>Created with Sketch.</desc>
    <g id="GDG-Mono-Gray" stroke="none" stroke-width="1" fill="none" fill-rule="evenodd">
        <path d="M619.447802,300 C604.315858,300 590.370943,296.353423 577.612637,289.06016 C564.854332,281.766898 554.729433,271.757417 547.237637,259.031417 C539.745842,246.305418 536,232.12842 536,216.5 C536,200.87158 539.745842,186.694582 547.237637,173.968583 C554.729433,161.242583 564.854332,151.233102 577.612637,143.93984 C590.370943,136.646577 604.315858,133 619.447802,133 C631.464346,133 642.664783,135.158178 653.049451,139.474599 C663.434118,143.79102 672.112602,149.819034 679.085165,157.558824 L661.728022,174.973262 C656.535688,169.16842 650.342069,164.703224 643.146978,161.57754 C635.951887,158.451856 627.978066,156.889037 619.225275,156.889037 C608.98896,156.889037 599.420374,159.344895 590.519231,164.256684 C581.618087,169.168474 574.497279,176.163947 569.156593,185.243316 C563.815907,194.322684 561.145604,204.741474 561.145604,216.5 C561.145604,228.258526 563.815907,238.677316 569.156593,247.756684 C574.497279,256.836053 581.618087,263.831526 590.519231,268.743316 C599.420374,273.655105 609.063135,276.110963 619.447802,276.110963 C628.942355,276.110963 636.879089,274.696984 643.258242,271.868984 C649.637395,269.040984 655.348876,265.245567 660.392857,260.48262 C663.65661,257.208094 666.438175,253.114998 668.737637,248.203209 C671.037099,243.291419 672.557689,237.933184 673.299451,232.128342 L619.225275,232.128342 L619.225275,209.802139 L696.887363,209.802139 C697.629125,213.969718 698,218.286074 698,222.751337 C698,232.8726 696.442323,242.584401 693.326923,251.887032 C690.211523,261.189663 685.241792,269.264226 678.417582,276.110963 C663.433991,292.037067 643.777594,300 619.447802,300 Z M726,137 L776.803361,137 C793.22025,137 807.566325,140.330972 819.842017,146.993017 C832.117708,153.655061 841.546186,163.018794 848.127731,175.084497 C854.709277,187.1502 858,200.95523 858,216.5 C858,232.04477 854.709277,245.8498 848.127731,257.915503 C841.546186,269.981206 832.117708,279.344939 819.842017,286.006983 C807.566325,292.669028 793.22025,296 776.803361,296 L726,296 L726,137 Z M776.486486,273 C794.216305,273 808.067518,268.054498 818.040541,258.163347 C828.013563,248.272195 833,234.551217 833,217 C833,199.597523 828.013563,185.913728 818.040541,175.948207 C808.067518,165.982686 794.216305,161 776.486486,161 L751,161 L751,273 L776.486486,273 Z M961.447802,300 C946.315858,300 932.370943,296.353423 919.612637,289.06016 C906.854332,281.766898 896.729433,271.757417 889.237637,259.031417 C881.745842,246.305418 878,232.12842 878,216.5 C878,200.87158 881.745842,186.694582 889.237637,173.968583 C896.729433,161.242583 906.854332,151.233102 919.612637,143.93984 C932.370943,136.646577 946.315858,133 961.447802,133 C973.464346,133 984.664783,135.158178 995.049451,139.474599 C1005.43412,143.79102 1014.1126,149.819034 1021.08516,157.558824 L1003.72802,174.973262 C998.535688,169.16842 992.342069,164.703224 985.146978,161.57754 C977.951887,158.451856 969.978066,156.889037 961.225275,156.889037 C950.98896,156.889037 941.420374,159.344895 932.519231,164.256684 C923.618087,169.168474 916.497279,176.163947 911.156593,185.243316 C905.815907,194.322684 903.145604,204.741474 903.145604,216.5 C903.145604,228.258526 905.815907,238.677316 911.156593,247.756684 C916.497279,256.836053 923.618087,263.831526 932.519231,268.743316 C941.420374,273.655105 951.063135,276.110963 961.447802,276.110963 C970.942355,276.110963 978.879089,274.696984 985.258242,271.868984 C991.637395,269.040984 997.348876,265.245567 1002.39286,260.48262 C1005.65661,257.208094 1008.43818,253.114998 1010.73764,248.203209 C1013.0371,243.291419 1014.55769,237.933184 1015.29945,232.128342 L961.225275,232.128342 L961.225275,209.802139 L1038.88736,209.802139 C1039.62912,213.969718 1040,218.286074 1040,222.751337 C1040,232.8726 1038.44232,242.584401 1035.32692,251.887032 C1032.21152,261.189663 1027.24179,269.264226 1020.41758,276.110963 C1005.43399,292.037067 985.777594,300 961.447802,300 Z" id="GDG" fill="#90969B"></path>
        <path d="M341.070005,224.448742 L392.069005,253.893742 L330.254263,289.583648 C318.057801,296.625278 302.462246,292.446462 295.420615,280.25 C288.378984,268.053538 292.557801,252.457983 304.754263,245.416352 L341.070005,224.448742 Z M143.49812,190.072128 L143.564133,190.077344 C143.682473,190.086851 143.800807,190.097192 143.919125,190.108372 C143.962986,190.112516 144.006664,190.116757 144.050341,190.121113 C144.136846,190.129741 144.223296,190.138811 144.309732,190.14833 C144.380694,190.156144 144.452015,190.164304 144.523325,190.17277 C144.595839,190.181379 144.668149,190.19028 144.740446,190.199497 C144.806263,190.207887 144.872297,190.216569 144.938318,190.225514 C145.004999,190.23455 145.071366,190.243812 145.137719,190.25334 C145.208587,190.263516 145.27963,190.274025 145.350656,190.284841 C145.445044,190.299215 145.539327,190.314119 145.633574,190.329564 C145.669643,190.335475 145.705625,190.341452 145.741601,190.347507 C145.83116,190.362582 145.920828,190.378172 146.010458,190.394255 C146.072304,190.405352 146.134278,190.41671 146.196231,190.428305 C146.291484,190.446132 146.386427,190.464465 146.48132,190.483353 C146.518174,190.49069 146.554552,190.498015 146.590922,190.505422 C146.695917,190.5268 146.801595,190.549023 146.907201,190.571938 C147.149243,190.624467 147.39007,190.680429 147.630448,190.740026 C147.703362,190.758103 147.776324,190.776538 147.849241,190.795308 C147.913278,190.811793 147.977008,190.828464 148.040703,190.845393 C148.108127,190.863313 148.175539,190.881528 148.24291,190.900031 C148.311188,190.918784 148.379557,190.937871 148.447882,190.957256 C148.490869,190.969452 148.533822,190.981762 148.576758,190.994189 L148.760829,191.048225 C148.798872,191.059549 148.8369,191.070967 148.874914,191.082478 C148.932142,191.099806 148.989461,191.117385 149.046746,191.135175 C149.131553,191.161514 149.216157,191.188277 149.300682,191.215505 C149.354003,191.232681 149.407329,191.250054 149.460623,191.267613 C149.534843,191.292065 149.60909,191.316908 149.683272,191.342112 C149.753606,191.36601 149.823704,191.39017 149.893741,191.414653 C149.962439,191.438667 150.03143,191.463118 150.100361,191.487885 C150.363991,191.582612 150.626153,191.681716 150.887334,191.785434 L150.910607,191.794689 C151.086852,191.864879 151.262648,191.937172 151.437964,192.011575 C151.534807,192.052675 151.631683,192.094497 151.728407,192.136968 C151.772731,192.156431 151.81639,192.175749 151.860017,192.195199 C151.931502,192.227067 152.003229,192.25944 152.074869,192.292172 C152.166496,192.334036 152.258167,192.376576 152.349688,192.419707 C152.387886,192.437709 152.425858,192.455718 152.463803,192.473829 C152.534517,192.50758 152.6052,192.541715 152.675791,192.576205 C152.759651,192.617177 152.84369,192.658806 152.927593,192.700942 C152.978602,192.726559 153.02926,192.752209 153.079868,192.778045 C153.162252,192.820102 153.244617,192.862711 153.326845,192.905812 C153.371847,192.9294 153.41678,192.953122 153.461673,192.976991 C153.549145,193.023501 153.636483,193.070584 153.723658,193.118228 C153.763791,193.140162 153.803997,193.162275 153.844167,193.184507 L153.871407,193.199604 C153.999387,193.270634 154.12701,193.342883 154.254263,193.416352 L244.320905,245.416352 C256.517367,252.457983 260.696183,268.053538 253.654553,280.25 C246.612922,292.446462 231.017367,296.625278 218.820905,289.583648 L128.754263,237.583648 C128.579833,237.482941 128.407043,237.380484 128.235902,237.276313 L128.754263,237.583648 C128.556632,237.469546 128.361106,237.353197 128.167699,237.234654 C128.0031,237.133768 127.839935,237.031228 127.678315,236.927128 L127.668834,236.921018 C127.642893,236.904294 127.616993,236.887529 127.591132,236.870725 C127.456087,236.782968 127.322383,236.694289 127.189767,236.604541 C127.164008,236.587109 127.137706,236.569239 127.111448,236.551327 C126.791906,236.33334 126.479373,236.109602 126.173246,235.879915 C126.140899,235.855644 126.108912,235.831525 126.076995,235.807341 C125.796285,235.594651 125.520761,235.376726 125.250741,235.15397 C125.194785,235.107807 125.139203,235.061554 125.083857,235.015095 C124.808235,234.78374 124.538113,234.546993 124.273911,234.30538 C124.248069,234.281748 124.222151,234.257947 124.196291,234.2341 C124.068712,234.11645 123.942584,233.997714 123.817855,233.877866 L123.778555,233.840021 L123.778555,233.840021 L123.722849,233.786727 L123.722849,233.786727 L123.669,233.733742 L123.622964,233.688577 L123.622964,233.688577 L123.589227,233.655696 L123.474521,233.541652 L123.474521,233.541652 L123.360455,233.427062 L123.324818,233.390964 C121.123004,231.15619 119.387843,228.563736 118.160149,225.765931 C118.156083,225.757908 118.152401,225.74955 118.148723,225.741191 L118.101142,225.630398 C118.048489,225.508496 117.996795,225.386212 117.946065,225.263556 L118.148723,225.741191 C118.063373,225.546041 117.980487,225.349895 117.900081,225.152806 C117.76751,224.826784 117.641422,224.498662 117.522166,224.168197 C117.509344,224.133599 117.496793,224.098571 117.484319,224.063517 C117.374207,223.753266 117.269863,223.441253 117.17157,223.127397 C117.147644,223.051693 117.124334,222.976013 117.101375,222.900228 C117.058972,222.759623 117.017569,222.618642 116.97738,222.477319 L116.963995,222.430668 C116.949813,222.380424 116.935785,222.330136 116.92191,222.279806 C116.891169,222.167756 116.861171,222.056016 116.831929,221.944077 C116.821375,221.904171 116.811013,221.8641 116.800748,221.824003 C116.759706,221.663244 116.720088,221.502036 116.682036,221.34045 L116.671462,221.295775 C116.659055,221.242653 116.646817,221.18949 116.634749,221.136288 C116.613399,221.041812 116.592408,220.946802 116.571958,220.85167 C116.555346,220.774724 116.539173,220.697753 116.523353,220.620705 C116.456767,220.29614 116.396426,219.970428 116.342404,219.643552 C116.331229,219.576126 116.320328,219.508477 116.309698,219.440779 C116.202232,218.756252 116.122431,218.067012 116.070771,217.374642 C116.065033,217.297757 116.059686,217.221445 116.05468,217.145097 C116.033474,216.821735 116.018388,216.49717 116.00951,216.172145 C116.007825,216.110462 116.006364,216.048767 116.005127,215.987058 C115.927253,212.105324 116.735327,208.162789 118.512263,204.469149 L118.289153,204.944955 C118.384804,204.735338 118.483536,204.526435 118.585363,204.318313 C118.661033,204.163762 118.738203,204.009916 118.817077,203.856536 L118.82573,203.839675 C118.848867,203.794769 118.872151,203.749903 118.895581,203.705076 C118.953151,203.594955 119.011546,203.485155 119.070825,203.375608 C119.09791,203.325549 119.125195,203.275522 119.152666,203.225549 C119.240064,203.066555 119.329398,202.907992 119.420615,202.75 C119.513651,202.588857 119.60818,202.429113 119.704175,202.270777 L119.420615,202.75 C119.538244,202.546261 119.658259,202.34476 119.780606,202.14551 C119.864314,202.009186 119.949132,201.873887 120.035024,201.739648 C120.054151,201.709754 120.073628,201.679451 120.09316,201.649203 C120.181956,201.511696 120.271678,201.375612 120.362506,201.24065 C120.398252,201.187532 120.434505,201.134096 120.470932,201.080838 C120.668805,200.791542 120.871603,200.507729 121.079314,200.229188 C121.108526,200.190017 121.137352,200.151592 121.16627,200.113268 C121.247688,200.005363 121.330363,199.897596 121.413776,199.790643 C121.436234,199.761848 121.458474,199.733457 121.480766,199.705124 L121.521002,199.654119 C121.622277,199.526072 121.724618,199.399208 121.828005,199.273534 C121.854287,199.241584 121.880796,199.20952 121.907374,199.177534 C122.135922,198.902473 122.369475,198.633198 122.607842,198.369736 C122.642982,198.330897 122.677934,198.292505 122.712988,198.254237 C122.802381,198.156644 122.892853,198.059421 122.983985,197.963018 C123.006967,197.938707 123.029775,197.914675 123.052623,197.890695 L123.089268,197.852316 C124.873144,195.987917 126.905241,194.43463 129.101768,193.214906 L129.125657,193.201657 L129.254284,193.130895 C129.58538,192.949985 129.920143,192.776615 130.258289,192.61086 C130.289266,192.595675 130.320584,192.580402 130.351932,192.565194 C130.436817,192.524014 130.521507,192.483505 130.606401,192.443471 C130.659838,192.418269 130.713853,192.393026 130.767949,192.367975 C130.853717,192.328259 130.939341,192.289183 131.025162,192.250587 C131.056331,192.23657 131.087697,192.222539 131.119089,192.208573 C131.628714,191.981847 132.145102,191.772065 132.667474,191.579411 C132.745428,191.550662 132.823259,191.522386 132.90122,191.49449 C132.964948,191.471686 133.028964,191.449065 133.093066,191.4267 C133.131734,191.413209 133.170394,191.399824 133.209084,191.386533 C133.298048,191.355971 133.387132,191.325914 133.476374,191.296349 C133.551752,191.271378 133.627071,191.246813 133.7025,191.222599 C133.746256,191.208551 133.790563,191.194459 133.834908,191.180487 C133.917383,191.154505 133.999385,191.129123 134.08151,191.104154 C134.143979,191.08516 134.207058,191.066245 134.270207,191.047574 C134.337176,191.027775 134.403866,191.008352 134.470633,190.9892 C134.516006,190.976185 134.561331,190.963319 134.606691,190.950578 C134.819959,190.890674 135.034088,190.833509 135.248928,190.779127 C135.334568,190.757446 135.420954,190.736054 135.507452,190.715112 C135.610544,190.690153 135.713496,190.665901 135.816599,190.642286 C135.89287,190.624816 135.96923,190.607693 136.045671,190.590919 L136.07262,190.58502 C136.188162,190.559796 136.303886,190.53537 136.419782,190.511743 C136.426502,190.510373 136.433164,190.509017 136.439827,190.507665 C136.499102,190.49563 136.558427,190.483804 136.617795,190.472187 C136.859498,190.424888 137.102287,190.381003 137.345724,190.340623 C137.369569,190.336667 137.393909,190.332665 137.418256,190.328699 C137.511868,190.313448 137.605157,190.298779 137.698535,190.284624 C137.753049,190.276361 137.807445,190.268295 137.861871,190.260404 C137.956971,190.246613 138.052581,190.233299 138.148276,190.220525 C138.195455,190.214229 138.242088,190.208136 138.288741,190.202171 C138.384586,190.189914 138.481018,190.178139 138.57753,190.166913 C138.613763,190.162697 138.650396,190.158516 138.687039,190.154413 C138.79426,190.142412 138.900846,190.131158 139.00752,190.120574 C139.044475,190.116906 139.081845,190.113281 139.119226,190.109737 C139.172424,190.104695 139.225424,190.099838 139.278445,190.095146 C139.445357,190.080374 139.612729,190.06722 139.780276,190.055714 C139.840227,190.051598 139.899891,190.047712 139.959577,190.044035 C139.983337,190.042571 140.007317,190.041127 140.031301,190.039717 C140.126989,190.034093 140.222568,190.029013 140.318196,190.024471 L140.414123,190.020095 C140.479137,190.017252 140.544173,190.014657 140.609228,190.012311 C140.648578,190.010892 140.687941,190.009563 140.727311,190.008326 C140.817685,190.005486 140.908055,190.003126 140.998459,190.001247 C141.074365,189.99967 141.150081,189.998434 141.225819,189.997535 C141.283147,189.996854 141.340843,189.996365 141.398551,189.996071 C141.43215,189.995901 141.465492,189.995797 141.498837,189.995759 L141.733905,189.996574 C141.764212,189.996819 141.794521,189.997118 141.824832,189.997471 C141.911265,189.998476 141.998312,189.999935 142.085376,190.001841 C142.127685,190.002768 142.169676,190.003792 142.21167,190.00492 C142.307869,190.007504 142.404191,190.010639 142.500527,190.014322 C142.551685,190.016279 142.602698,190.018383 142.653713,190.020642 C142.697748,190.022592 142.742061,190.024669 142.786376,190.026864 C142.982264,190.036566 143.177803,190.048515 143.373336,190.06274 C143.40618,190.065129 143.43917,190.067594 143.472161,190.070124 L143.49812,190.072128 L143.49812,190.072128 Z M330.254263,141.416352 L419.918665,193.1846 C419.92895,193.190278 419.939232,193.195964 419.94951,193.201657 L420.320905,193.416352 C420.486016,193.511679 420.649657,193.608573 420.811821,193.707006 L420.320905,193.416352 C420.513668,193.527644 420.704428,193.641072 420.893173,193.75659 C421.033679,193.842581 421.173455,193.929977 421.312102,194.018517 C421.334106,194.032569 421.35622,194.046738 421.378305,194.060937 L421.396852,194.072872 C421.542578,194.166735 421.687047,194.261866 421.830255,194.358243 C421.879994,194.391715 421.930072,194.425673 421.979995,194.459784 C422.098595,194.540822 422.215959,194.622466 422.332447,194.704951 C422.35756,194.722733 422.383103,194.74089 422.408603,194.759086 C423.202015,195.325287 423.954018,195.930209 424.663994,196.570011 L424.743041,196.641547 C424.781872,196.676838 424.820577,196.712233 424.859154,196.747732 C424.938871,196.821087 425.018147,196.894984 425.096877,196.96932 C425.124827,196.995711 425.152553,197.022009 425.18021,197.04836 L425.218589,197.085005 C427.620936,199.383596 429.506736,202.094315 430.827956,205.037901 C430.834574,205.052459 430.841051,205.066846 430.847513,205.081237 L430.848056,205.082798 L430.891271,205.180118 C430.967746,205.353313 431.042274,205.5273 431.114845,205.702043 L430.924799,205.255069 C431.012887,205.456387 431.098351,205.658766 431.181176,205.862149 C431.223442,205.967053 431.265575,206.072472 431.307,206.178152 C431.353065,206.294623 431.397908,206.411577 431.441885,206.528837 C431.465577,206.592993 431.489286,206.656964 431.512737,206.721025 C431.545737,206.810238 431.577985,206.8999 431.60973,206.989732 C431.657676,207.126266 431.704757,207.263133 431.750673,207.400375 L431.76149,207.43197 C431.769231,207.455217 431.77694,207.478475 431.784614,207.501743 C431.829385,207.638243 431.873094,207.774554 431.915656,207.911213 C431.933657,207.96831 431.951398,208.026005 431.968936,208.08376 C432.003469,208.198133 432.03737,208.312611 432.07047,208.427318 C432.089448,208.492486 432.108029,208.557873 432.126351,208.623332 C432.266283,209.123722 432.39116,209.628293 432.500628,210.136333 C432.512935,210.193112 432.525012,210.25011 432.536894,210.30715 C432.604191,210.630479 432.665282,210.954921 432.7201,211.280534 C432.732707,211.355208 432.745043,211.430532 432.757042,211.505917 C432.809592,211.836229 432.855667,212.167211 432.89526,212.499146 C432.899722,212.536449 432.904052,212.57345 432.908303,212.610463 C432.94787,212.95508 432.980473,213.300824 433.006028,213.647346 C433.009708,213.697217 433.013224,213.746882 433.016595,213.796562 C433.315765,218.204443 432.474363,222.733348 430.36946,226.924333 C430.347565,226.967766 430.325492,227.011422 430.30328,227.055041 C430.098612,227.456948 429.882459,227.855254 429.654553,228.25 C429.566287,228.40288 429.476677,228.554501 429.385747,228.704856 L429.654553,228.25 C429.535509,228.45619 429.41402,228.660089 429.290144,228.861681 C429.096391,229.176986 428.896854,229.486567 428.691701,229.790448 C428.675357,229.814655 428.659066,229.838698 428.642739,229.862706 C428.431981,230.172621 428.215232,230.476745 427.992856,230.774831 C427.965116,230.812015 427.937051,230.849421 427.908897,230.886732 C427.694799,231.170455 427.475835,231.448329 427.251967,231.720625 C427.218032,231.761903 427.183741,231.803344 427.149336,231.844655 C427.069675,231.940304 426.9897,232.03491 426.909131,232.128821 C426.870195,232.174203 426.831144,232.219397 426.791954,232.264428 C426.687325,232.384658 426.581398,232.504079 426.474501,232.62233 C426.430805,232.670666 426.387249,232.718477 426.343535,232.766095 C426.263582,232.85319 426.182846,232.939908 426.101584,233.025972 C426.075193,233.053923 426.048896,233.081648 426.022544,233.109305 L425.9859,233.147684 C425.880326,233.258023 425.773883,233.367273 425.666588,233.475428 L425.452412,233.688757 L425.452412,233.688757 L425.352,233.785742 L425.090341,234.038096 C423.429167,235.609258 421.581523,236.930114 419.606822,237.984745 L419.922619,237.813217 C419.749006,237.909107 419.574373,238.002917 419.398759,238.094635 C419.331657,238.129682 419.264291,238.164484 419.196785,238.19898 C419.16085,238.217342 419.124885,238.235612 419.08888,238.253796 C418.999485,238.298943 418.909801,238.343576 418.819877,238.38767 C418.775765,238.409301 418.731399,238.430897 418.686976,238.452362 C418.607959,238.490542 418.528971,238.528209 418.449805,238.565462 C418.390272,238.593476 418.330891,238.62114 418.271412,238.648572 C418.228911,238.668175 418.185942,238.687849 418.142923,238.707403 C418.058811,238.745632 417.974821,238.783261 417.890644,238.820429 C417.81661,238.853119 417.742289,238.885515 417.667824,238.917553 C417.625628,238.935708 417.583254,238.953804 417.540835,238.971784 C417.469473,239.002031 417.398269,239.031832 417.326939,239.061307 C417.096867,239.156378 416.865491,239.24806 416.632894,239.336331 C416.42351,239.415791 416.213318,239.492423 416.002199,239.566279 C415.944476,239.586473 415.886479,239.606529 415.828413,239.626376 C415.610094,239.700999 415.390658,239.772709 415.170317,239.841439 C415.124805,239.855636 415.079109,239.869749 415.033376,239.883735 C414.923171,239.917435 414.812867,239.950356 414.702349,239.982533 C414.689221,239.986355 414.675886,239.990226 414.662548,239.994085 C414.431791,240.060862 414.200315,240.124341 413.967989,240.184562 C413.922407,240.196376 413.877265,240.207945 413.832093,240.219391 L413.79181,240.229563 C413.403533,240.327277 413.012942,240.415909 412.620384,240.495367 C412.526692,240.514332 412.43281,240.532789 412.338821,240.550721 C412.303863,240.557391 412.268865,240.563992 412.233852,240.570522 C412.141404,240.587761 412.048801,240.604503 411.956099,240.620735 C411.897796,240.630943 411.840107,240.640839 411.782382,240.650539 C411.734421,240.658599 411.685735,240.666637 411.637023,240.674534 C411.526027,240.692526 411.415421,240.709713 411.304692,240.726176 C411.275786,240.730474 411.246759,240.734739 411.217723,240.738954 C411.113219,240.754126 411.008613,240.768652 410.903906,240.782532 C410.86769,240.787333 410.831985,240.791988 410.796268,240.796569 C410.67692,240.811879 410.556778,240.826426 410.436514,240.840123 C410.418232,240.842205 410.399901,240.844273 410.381566,240.846321 C410.277892,240.857901 410.174309,240.86883 410.070644,240.879129 C409.831143,240.902924 409.590987,240.923364 409.350464,240.940408 C409.270627,240.946066 409.190632,240.951357 409.110599,240.956272 C409.05768,240.959522 409.004681,240.962611 408.951667,240.965536 C408.864921,240.970321 408.777975,240.974671 408.69099,240.978577 C408.640823,240.980829 408.591162,240.982913 408.541488,240.984852 C408.459619,240.988049 408.377226,240.990867 408.294803,240.993286 C408.230521,240.995172 408.16649,240.996809 408.102442,240.998205 C408.008513,241.000253 407.91445,241.001783 407.820355,241.002792 C407.782452,241.003199 407.744769,241.003519 407.707082,241.003755 C407.62002,241.004303 407.532653,241.004404 407.445264,241.004054 C407.376883,241.003781 407.308601,241.003233 407.240306,241.00241 C407.124222,241.00101 407.008316,240.998822 406.892383,240.995839 C406.890205,240.995783 406.887541,240.995714 406.884877,240.995645 C406.457818,240.98466 406.022883,240.962326 405.588011,240.928722 C405.522887,240.923692 405.4568,240.918328 405.390717,240.912702 C405.314103,240.906179 405.238134,240.899365 405.162171,240.892207 C405.14936,240.891 405.136342,240.889763 405.123324,240.888516 L404.813395,240.856905 C404.776758,240.852941 404.740124,240.848896 404.703491,240.844771 C404.683107,240.842476 404.662437,240.840122 404.641768,240.837743 C404.516886,240.823368 404.39225,240.808084 404.267655,240.791862 C404.247869,240.789286 404.228197,240.786701 404.208526,240.784093 C404.110521,240.771099 404.012466,240.757514 403.914443,240.743346 C403.834486,240.73179 403.754441,240.719829 403.67442,240.707479 C403.612137,240.697867 403.549838,240.688014 403.487555,240.677925 C403.436173,240.669601 403.38514,240.661172 403.334118,240.652585 C403.218972,240.633209 403.103294,240.612915 402.987681,240.591801 C402.956839,240.586168 402.92653,240.580574 402.896226,240.574925 C402.797803,240.556578 402.698985,240.537547 402.600221,240.517915 C402.555719,240.509069 402.51079,240.500012 402.465873,240.49083 C402.407008,240.478795 402.348974,240.466717 402.290962,240.45443 C401.996358,240.392044 401.701678,240.324123 401.407675,240.25076 C401.352122,240.236897 401.29708,240.222964 401.242062,240.20884 C401.163341,240.188633 401.083905,240.167832 401.004524,240.14663 C400.945148,240.13077 400.886186,240.114793 400.827255,240.098594 C400.759888,240.080077 400.692537,240.061263 400.625229,240.042161 C400.552911,240.021636 400.4806,240.000765 400.408339,239.979559 C400.333398,239.957567 400.258393,239.935178 400.183446,239.912426 C400.129706,239.896113 400.076047,239.879629 400.022418,239.862959 C399.947902,239.839797 399.873549,239.816308 399.799257,239.792461 C399.774186,239.784413 399.748889,239.776249 399.723598,239.768044 L399.444381,239.675656 C399.43771,239.673406 399.43104,239.671153 399.42437,239.668897 C399.324436,239.635095 399.224323,239.600534 399.124333,239.565312 C399.075961,239.548274 399.027362,239.530989 398.978793,239.513547 C398.917539,239.491549 398.856908,239.469514 398.796325,239.447234 C398.650983,239.393786 398.505582,239.338801 398.360476,239.282397 C398.164272,239.206134 397.968405,239.127195 397.773122,239.045645 C397.693555,239.012421 397.613392,238.978466 397.533329,238.944069 C397.487584,238.924414 397.442275,238.904792 397.397,238.885028 C397.315005,238.849235 397.23295,238.812901 397.151007,238.776099 C397.09714,238.751907 397.043186,238.727451 396.989281,238.702791 C396.918742,238.67052 396.848434,238.637969 396.778212,238.605071 C396.713781,238.574885 396.649422,238.544406 396.585137,238.513634 C396.513943,238.479555 396.44266,238.445029 396.371472,238.41014 C396.308892,238.379469 396.246893,238.348771 396.184967,238.317799 C396.121237,238.285926 396.05695,238.253437 395.992743,238.22065 C395.917822,238.182389 395.843512,238.143984 395.769314,238.105179 C395.710029,238.074174 395.650692,238.042846 395.591427,238.011261 C395.526794,237.976816 395.4621,237.941984 395.397495,237.906844 C395.341602,237.876442 395.286024,237.845947 395.230513,237.815223 L395.20376,237.800396 C395.075781,237.729366 394.948158,237.657117 394.820905,237.583648 L393.673,236.920742 L356.570005,215.499742 L356.571,215.499742 L304.754263,185.583648 C292.557801,178.542017 288.378984,162.946462 295.420615,150.75 C302.462246,138.553538 318.057801,134.374722 330.254263,141.416352 Z M253.654553,150.75 C260.696183,162.946462 256.517367,178.542017 244.320905,185.583648 L207.003005,207.127742 L156.670178,178.068023 C156.446407,177.938829 156.221927,177.811996 155.996767,177.687517 L218.820905,141.416352 C231.017367,134.374722 246.612922,138.553538 253.654553,150.75 Z" id="Bracket-Copy" fill="#90969B"></path>
    </g>
</svg>